<?xml version="1.0" standalone="no"?>
<!DOCTYPE svg PUBLIC "-//W3C//DTD SVG 20010904//EN"
 "http://www.w3.org/TR/2001/REC-SVG-20010904/DTD/svg10.dtd">
<svg version="1.0" xmlns="http://www.w3.org/2000/svg"
 width="128.000000pt" height="128.000000pt" viewBox="0 0 128.000000 128.000000"
 preserveAspectRatio="xMidYMid meet">

<g transform="translate(0.000000,128.000000) scale(0.100000,-0.100000)"
fill="#000000" stroke="none">
<path d="M936 934 c-30 -30 -18 -55 76 -150 l92 -94 -536 0 c-474 0 -538 -2
-552 -16 -20 -20 -20 -48 0 -68 14 -14 78 -16 552 -16 l536 0 -92 -94 c-56
-57 -92 -101 -92 -114 0 -25 25 -52 48 -52 9 0 83 64 165 143 112 108 147 148
147 167 0 19 -34 58 -147 167 -82 79 -156 143 -165 143 -9 0 -24 -7 -32 -16z"/>
</g>
</svg>
